<?xml version="1.0" encoding="UTF-8"?>
<!-- Generated by Pixelmator Pro 3.6.6 -->
<svg width="52" height="52" viewBox="0 0 52 52" xmlns="http://www.w3.org/2000/svg">
    <path id="Circle" fill="#ffffff" fill-rule="evenodd" stroke="none" d="M 52 26 C 52 11.640598 40.359402 0 26 0 C 11.640596 0 0 11.640598 0 26 C 0 40.359406 11.640596 52 26 52 C 40.359402 52 52 40.359406 52 26 Z"/>
    <g id="LeftEye-copy">
        <path id="LeftEyeOutline" fill="#000000" fill-rule="evenodd" stroke="none" d="M 20 27 C 20 22.581722 16.418278 19 12 19 C 7.581722 19 4 22.581722 4 27 C 4 31.418278 7.581722 35 12 35 C 16.418278 35 20 31.418278 20 27 Z"/>
        <path id="LeftEyeWhite" fill="#ffffff" fill-rule="evenodd" stroke="none" d="M 15 25.5 C 15 23.014719 12.985281 21 10.5 21 C 8.014719 21 6 23.014719 6 25.5 C 6 27.985281 8.014719 30 10.5 30 C 12.985281 30 15 27.985281 15 25.5 Z"/>
        <path id="LeftEyeReflection" fill="#ffffff" fill-rule="evenodd" stroke="none" d="M 16 30.5 C 16 29.671574 15.328427 29 14.5 29 C 13.671573 29 13 29.671574 13 30.5 C 13 31.328426 13.671573 32 14.5 32 C 15.328427 32 16 31.328426 16 30.5 Z"/>
    </g>
    <g id="RightEye-copy">
        <path id="RightEyeOutline" fill="#000000" fill-rule="evenodd" stroke="none" d="M 32 27 C 32 22.581722 35.581722 19 40 19 C 44.418278 19 48 22.581722 48 27 C 48 31.418278 44.418278 35 40 35 C 35.581722 35 32 31.418278 32 27 Z"/>
        <path id="RightEyeWhite" fill="#ffffff" fill-rule="evenodd" stroke="none" d="M 37 25.5 C 37 23.014719 39.014717 21 41.5 21 C 43.985283 21 46 23.014719 46 25.5 C 46 27.985281 43.985283 30 41.5 30 C 39.014717 30 37 27.985281 37 25.5 Z"/>
        <path id="RightEyeReflection" fill="#ffffff" fill-rule="evenodd" stroke="none" d="M 36 30.5 C 36 29.671574 36.671574 29 37.5 29 C 38.328426 29 39 29.671574 39 30.5 C 39 31.328426 38.328426 32 37.5 32 C 36.671574 32 36 31.328426 36 30.5 Z"/>
    </g>
    <path id="LeftEyebrow-copy" fill="#000000" fill-rule="evenodd" stroke="none" d="M 7.236696 17.180401 C 8.905951 16.231834 14.194647 13.187851 17.332237 15.793243 C 19.219463 17.360359 23.497499 13.258064 24 15 C 24.48267 16.67318 19.241898 19.013958 16.960863 17.799408 C 13.879852 16.158909 8.419726 17.873558 6.625666 18.663719 C 5.540529 19.141647 6.012016 17.876331 7.236696 17.180401 Z"/>
    <path id="RightEyebrow-copy" fill="#000000" fill-rule="evenodd" stroke="none" d="M 44.403683 14.497257 C 42.510666 14.176819 36.499813 13.125248 34.442543 16.646637 C 33.205112 18.764713 27.782007 16.37299 27.905588 18.18174 C 28.024288 19.919098 33.749596 20.32626 35.477669 18.404797 C 37.811787 15.809464 43.529072 15.553234 45.485188 15.682137 C 46.668343 15.760105 45.792526 14.732357 44.403683 14.497257 Z"/>
    <path id="Mouth-copy" fill="#000000" fill-rule="evenodd" stroke="none" d="M 33 35 C 33.0928 38.416969 31.748627 39.053848 30 37 C 28.836084 35.632923 26.657131 34.499516 25 36 C 23.086472 37.732643 23.622883 38.802475 22 39 C 21.001951 39.121475 18.980053 37.462296 19.000086 36.680809 C 19.085388 33.352806 21.990141 29.27729 25 32 C 27.528696 34.287453 32.887871 30.871342 33 35 Z"/>
</svg>
