<?xml version="1.0" encoding="UTF-8"?>
<!-- Generated by Pixelmator Pro 3.6.6 -->
<svg width="52" height="32" viewBox="0 0 52 32" xmlns="http://www.w3.org/2000/svg">
    <g id="LeftEye">
        <path id="LeftEyeOutline" fill="#000000" fill-rule="evenodd" stroke="none" d="M 14.304322 25.287949 C 16.857763 25.722506 20.720577 23.677254 20.370867 23.239279 C 18.40284 20.774536 12.16317 12.790073 8.158313 7.088318 C 7.593796 6.284609 0.410488 13.458004 3.712051 19.304321 C 5.743676 22.901869 7.156717 24.071537 14.304322 25.287949 Z"/>
        <path id="LeftEyeWhite" fill="#ffffff" fill-rule="evenodd" stroke="none" d="M 16.441086 22.341045 C 17.291101 20.005646 16.08696 17.423355 13.751559 16.573338 C 11.416159 15.723322 8.833868 16.927464 7.983851 19.262863 C 7.133835 21.598263 8.337977 24.180555 10.673378 25.030571 C 13.008778 25.880589 15.591069 24.676445 16.441086 22.341045 Z"/>
        <path id="LeftEyeReflection" fill="#ffffff" fill-rule="evenodd" stroke="none" d="M 14.909946 24.013439 C 15.193285 23.234972 14.791904 22.374207 14.013437 22.09087 C 13.234971 21.807529 12.374207 22.208912 12.090869 22.987377 C 11.80753 23.765842 12.20891 24.626608 12.987377 24.909946 C 13.765844 25.193285 14.626608 24.791904 14.909946 24.013439 Z"/>
    </g>
    <g id="RightEye">
        <path id="RightEyeOutline" fill="#000000" fill-rule="evenodd" stroke="none" d="M 38.254215 25.08466 C 35.700771 25.519215 31.837959 23.473965 32.187672 23.035988 C 34.155697 20.571245 40.395367 12.586782 44.400223 6.885027 C 44.964741 6.081318 52.148048 13.254715 48.846485 19.101032 C 46.814861 22.698578 45.401817 23.868248 38.254215 25.08466 Z"/>
        <path id="RightEyeWhite" fill="#ffffff" fill-rule="evenodd" stroke="none" d="M 35 21.5 C 35 19.014719 37.014717 17 39.5 17 C 41.985283 17 44 19.014719 44 21.5 C 44 23.985281 41.985283 26 39.5 26 C 37.014717 26 35 23.985281 35 21.5 Z"/>
        <path id="RightEyeReflection" fill="#ffffff" fill-rule="evenodd" stroke="none" d="M 43 23.5 C 43 22.671574 42.328426 22 41.5 22 C 40.671574 22 40 22.671574 40 23.5 C 40 24.328426 40.671574 25 41.5 25 C 42.328426 25 43 24.328426 43 23.5 Z"/>
    </g>
    <path id="LeftEyebrow" fill="#000000" fill-rule="evenodd" stroke="none" d="M 17.133915 7.954645 C 18.007542 9.911005 19.067804 12.17782 19.691906 14.071232 C 20.606733 16.846655 21.7651 19.561239 20.99642 20.090229 C 20.350824 20.534515 19.307217 16.648247 18.42322 14.285011 C 17.957178 13.039118 16.309515 9.231405 15.936635 8.315739 C 15.47518 7.18256 16.558504 6.666098 17.133915 7.954645 Z"/>
    <path id="RightEyebrow" fill="#000000" fill-rule="evenodd" stroke="none" d="M 34.512821 8.026899 C 33.639194 9.983257 32.578934 12.250072 31.954828 14.143486 C 31.040001 16.918907 29.881636 19.633493 30.650316 20.162483 C 31.295912 20.606768 32.33952 16.720499 33.223515 14.357264 C 33.689556 13.111372 35.337219 9.303658 35.710102 8.387991 C 36.171555 7.254814 35.08823 6.738352 34.512821 8.026899 Z"/>
    <path id="Mouth" fill="#000000" fill-rule="evenodd" stroke="none" d="M 30 28.680809 C 30.008083 29.117905 28.040936 29.151196 28 27.680809 C 27.939606 25.51149 27.277348 24.709026 26 24.680809 C 24.814335 24.654617 24.051506 25.749493 24 27.680809 C 23.973217 28.685131 21.988552 29.462299 22 28.680809 C 22.048744 25.352806 23.819111 22.680809 26.018234 22.680809 C 28.217354 22.680809 29.923668 24.552788 30 28.680809 Z"/>
</svg>
