<?xml version="1.0" encoding="UTF-8"?>
<!-- Generated by Pixelmator Pro 3.6.6 -->
<svg width="52" height="32" viewBox="0 0 52 32" xmlns="http://www.w3.org/2000/svg">
    <g id="LeftEye">
        <path id="LeftEyeOutline" fill="#000000" fill-rule="evenodd" stroke="none" d="M 20 18 C 20 13.581722 14 12 12 12 C 10 12 4 13.581722 4 18 C 4 22.418278 5.328711 13.861977 12 14 C 19.07066 14.146286 20 22.418278 20 18 Z"/>
        <path id="LeftEyeWhite" fill="#ffffff" fill-rule="evenodd" stroke="none" d="M 20 18 C 17.586052 15.631437 16.418848 12.87772 12 13 C 7.822325 13.115606 5.650147 16.00725 4 18 C 3.961726 18.046221 7.55834 13.017237 12 13 C 17.168661 12.979942 20.121279 18.118999 20 18 Z"/>
        <path id="LeftEyeReflection" fill="#ffffff" fill-rule="evenodd" stroke="none" d="M 16 14.5 C 16 14.223858 15.776142 14 15.5 14 C 15.223858 14 15 14.223858 15 14.5 C 15 14.776142 15.177133 13.996426 15.453275 13.996426 C 15.729417 13.996426 16 14.776142 16 14.5 Z"/>
    </g>
    <g id="RightEye">
        <path id="RightEyeOutline" fill="#000000" fill-rule="evenodd" stroke="none" d="M 32 18 C 32 13.581722 38 12 40 12 C 42 12 48 13.581722 48 18 C 48 22.418278 46.671288 13.861977 40 14 C 32.92934 14.146286 32 22.418278 32 18 Z"/>
        <path id="RightEyeWhite" fill="#ffffff" fill-rule="evenodd" stroke="none" d="M 32.003292 18 C 34.41724 15.631437 35.584446 12.87772 40.003292 13 C 44.180969 13.115606 46.353146 16.00725 48.003292 18 C 48.041569 18.046221 44.444954 13.017237 40.003292 13 C 34.834633 12.979942 31.882013 18.118999 32.003292 18 Z"/>
        <path id="RightEyeReflection" fill="#ffffff" fill-rule="evenodd" stroke="none" d="M 43 14.5 C 43 14.223858 43.223858 14 43.5 14 C 43.776142 14 44 14.223858 44 14.5 C 44 14.776142 43.822868 13.996426 43.546726 13.996426 C 43.270584 13.996426 43 14.776142 43 14.5 Z"/>
    </g>
    <path id="RightEyebrow" fill="#000000" fill-rule="evenodd" stroke="none" d="M 48 7 C 45.102371 3.879494 43.118378 2.71949 41.12476 2.71949 C 37.653118 2.71949 36.825272 2.635098 35.624542 3.993439 C 34.471203 5.298168 38.497887 3.674782 41 4 C 42.323315 4.172001 46.338936 7.264828 47 8 C 47.792812 8.881695 48.958488 8.032211 48 7 Z"/>
    <path id="LeftEyebrow" fill="#000000" fill-rule="evenodd" stroke="none" d="M 2.782516 7 C 5.680145 3.879494 7.664138 2.71949 9.657756 2.71949 C 13.129397 2.71949 13.957244 2.635098 15.157973 3.993439 C 16.311314 5.298168 12.284629 3.674782 9.782516 4 C 8.459202 4.172001 4.44358 7.264828 3.782516 8 C 2.989703 8.881695 1.824028 8.032211 2.782516 7 Z"/>
    <path id="Mouth" fill="#000000" fill-rule="evenodd" stroke="none" d="M 30 23 C 30.008083 22.562904 28.040936 22.529613 28 24 C 27.939606 26.169317 27.277348 26.971783 26 27 C 24.814335 27.026192 24.051506 25.931314 24 24 C 23.973217 22.995678 21.988552 22.21851 22 23 C 22.048744 26.328001 23.819111 29 26.018234 29 C 28.217354 29 29.923668 27.128021 30 23 Z"/>
</svg>
