<?xml version="1.0" encoding="UTF-8"?>
<!-- Generated by Pixelmator Pro 3.6.6 -->
<svg width="52" height="32" viewBox="0 0 52 32" xmlns="http://www.w3.org/2000/svg">
    <g id="LeftEye">
        <path id="LeftEyeOutline" fill="#000000" fill-rule="evenodd" stroke="none" d="M 20 18 C 20 13.581722 16.418278 10 12 10 C 7.581722 10 4 13.581722 4 18 C 4 22.418278 7.581722 26 12 26 C 16.418278 26 20 22.418278 20 18 Z"/>
        <path id="LeftEyeWhite" fill="#ffffff" fill-rule="evenodd" stroke="none" d="M 15 16.5 C 15 14.014719 12.985281 12 10.5 12 C 8.014719 12 6 14.014719 6 16.5 C 6 18.985281 8.014719 21 10.5 21 C 12.985281 21 15 18.985281 15 16.5 Z"/>
        <path id="LeftEyeReflection" fill="#ffffff" fill-rule="evenodd" stroke="none" d="M 16 21.5 C 16 20.671574 15.328427 20 14.5 20 C 13.671573 20 13 20.671574 13 21.5 C 13 22.328426 13.671573 23 14.5 23 C 15.328427 23 16 22.328426 16 21.5 Z"/>
    </g>
    <g id="RightEye-copy">
        <path id="RightEyeOutline" fill="#000000" fill-rule="evenodd" stroke="none" d="M 32 18 C 32 13.581722 35.581722 10 40 10 C 44.418278 10 48 13.581722 48 18 C 48 22.418278 44.418278 26 40 26 C 35.581722 26 32 22.418278 32 18 Z"/>
        <path id="RightEyeWhite" fill="#ffffff" fill-rule="evenodd" stroke="none" d="M 34 16.5 C 34 14.014719 36.014717 12 38.5 12 C 40.985283 12 43 14.014719 43 16.5 C 43 18.985281 40.985283 21 38.5 21 C 36.014717 21 34 18.985281 34 16.5 Z"/>
        <path id="RightEyeReflection" fill="#ffffff" fill-rule="evenodd" stroke="none" d="M 44 21.5 C 44 20.671574 43.328426 20 42.5 20 C 41.671574 20 41 20.671574 41 21.5 C 41 22.328426 41.671574 23 42.5 23 C 43.328426 23 44 22.328426 44 21.5 Z"/>
    </g>
    <path id="LeftEyebrow" fill="#000000" fill-rule="evenodd" stroke="none" d="M 7.236696 8.180401 C 8.905951 7.231836 14.194647 4.187851 17.332237 6.793243 C 19.219463 8.360359 23.497499 4.258064 24 6 C 24.48267 7.673182 19.241898 10.013958 16.960863 8.79941 C 13.879852 7.158911 8.419726 8.873558 6.625666 9.663719 C 5.540529 10.141647 6.012016 8.876333 7.236696 8.180401 Z"/>
    <path id="RightEyebrow" fill="#000000" fill-rule="evenodd" stroke="none" d="M 44.403683 5.497259 C 42.510666 5.176819 36.499813 4.125248 34.442543 7.646635 C 33.205112 9.764711 27.782007 7.37299 27.905588 9.18174 C 28.024288 10.9191 33.749596 11.32626 35.477669 9.4048 C 37.811787 6.809465 43.529072 6.553234 45.485188 6.682137 C 46.668343 6.760105 45.792526 5.732357 44.403683 5.497259 Z"/>
    <path id="Mouth" fill="#000000" fill-rule="evenodd" stroke="none" d="M 33 26 C 33.0928 29.416971 31.748627 30.053848 30 28 C 28.836084 26.632923 26.657131 25.499516 25 27 C 23.086472 28.732643 23.622883 29.802473 22 30 C 21.001951 30.121475 18.980053 28.462297 19.000086 27.680807 C 19.085388 24.352806 21.990141 20.27729 25 23 C 27.528696 25.287451 32.887871 21.871342 33 26 Z"/>
</svg>
