<?xml version="1.0" encoding="UTF-8"?>
<!-- Generated by Pixelmator Pro 3.6.6 -->
<svg width="52" height="32" viewBox="0 0 52 32" xmlns="http://www.w3.org/2000/svg">
    <g id="LeftEye">
        <path id="LeftEyeOutline" fill="#000000" fill-rule="evenodd" stroke="none" d="M 20 18 C 20 13.581722 16.418278 10 12 10 C 7.581722 10 4 13.581722 4 18 C 4 22.418278 7.581722 26 12 26 C 16.418278 26 20 22.418278 20 18 Z"/>
        <path id="LeftEyeWhite" fill="#ffffff" fill-rule="evenodd" stroke="none" d="M 15 16.5 C 15 14.014719 12.985281 12 10.5 12 C 8.014719 12 6 14.014719 6 16.5 C 6 18.985281 8.014719 21 10.5 21 C 12.985281 21 15 18.985281 15 16.5 Z"/>
        <path id="LeftEyeReflection" fill="#ffffff" fill-rule="evenodd" stroke="none" d="M 16 21.5 C 16 20.671574 15.328427 20 14.5 20 C 13.671573 20 13 20.671574 13 21.5 C 13 22.328426 13.671573 23 14.5 23 C 15.328427 23 16 22.328426 16 21.5 Z"/>
    </g>
    <g id="RightEye">
        <path id="RightEyeOutline" fill="#000000" fill-rule="evenodd" stroke="none" d="M 32 18 C 32 13.581722 35.581722 10 40 10 C 44.418278 10 48 13.581722 48 18 C 48 22.418278 44.418278 26 40 26 C 35.581722 26 32 22.418278 32 18 Z"/>
        <path id="RightEyeWhite" fill="#ffffff" fill-rule="evenodd" stroke="none" d="M 34 16.5 C 34 14.014719 36.014717 12 38.5 12 C 40.985283 12 43 14.014719 43 16.5 C 43 18.985281 40.985283 21 38.5 21 C 36.014717 21 34 18.985281 34 16.5 Z"/>
        <path id="RightEyeReflection" fill="#ffffff" fill-rule="evenodd" stroke="none" d="M 44 21.5 C 44 20.671574 43.328426 20 42.5 20 C 41.671574 20 41 20.671574 41 21.5 C 41 22.328426 41.671574 23 42.5 23 C 43.328426 23 44 22.328426 44 21.5 Z"/>
    </g>
    <path id="RightEyebrow" fill="#000000" fill-rule="evenodd" stroke="none" d="M 48 7 C 45.102371 3.879494 43.118378 2.71949 41.12476 2.71949 C 37.653118 2.71949 36.825272 2.635098 35.624542 3.993439 C 34.471203 5.298168 38.497887 3.674782 41 4 C 42.323315 4.172001 46.338936 7.264828 47 8 C 47.792812 8.881695 48.958488 8.032211 48 7 Z"/>
    <path id="LeftEyebrow" fill="#000000" fill-rule="evenodd" stroke="none" d="M 2.782516 7 C 5.680145 3.879494 7.664138 2.71949 9.657756 2.71949 C 13.129397 2.71949 13.957244 2.635098 15.157973 3.993439 C 16.311314 5.298168 12.284629 3.674782 9.782516 4 C 8.459202 4.172001 4.44358 7.264828 3.782516 8 C 2.989703 8.881695 1.824028 8.032211 2.782516 7 Z"/>
    <path id="Mouth" fill="#000000" fill-rule="evenodd" stroke="none" d="M 30 23 C 30.008083 22.562904 28.040936 22.529613 28 24 C 27.939606 26.169317 27.277348 26.971783 26 27 C 24.814335 27.026192 24.051506 25.931314 24 24 C 23.973217 22.995678 21.988552 22.21851 22 23 C 22.048744 26.328001 23.819111 29 26.018234 29 C 28.217354 29 29.923668 27.128021 30 23 Z"/>
</svg>
