<?xml version="1.0" encoding="UTF-8"?>
<!-- Generated by Pixelmator Pro 3.6.6 -->
<svg width="52" height="32" viewBox="0 0 52 32" xmlns="http://www.w3.org/2000/svg">
    <g id="LeftEye">
        <path id="LeftEyeOutline" fill="#000000" fill-rule="evenodd" stroke="none" d="M 20 19 C 20 14.581722 16.418278 11 12 11 C 7.581722 11 4 14.581722 4 19 C 4 23.418278 7.581722 27 12 27 C 16.418278 27 20 23.418278 20 19 Z"/>
        <path id="LeftEyeWhite" fill="#ffffff" fill-rule="evenodd" stroke="none" d="M 15 17.5 C 15 15.014719 12.985281 13 10.5 13 C 8.014719 13 6 15.014719 6 17.5 C 6 19.985281 8.014719 22 10.5 22 C 12.985281 22 15 19.985281 15 17.5 Z"/>
        <path id="LeftEyeReflection" fill="#ffffff" fill-rule="evenodd" stroke="none" d="M 16 22.5 C 16 21.671574 15.328427 21 14.5 21 C 13.671573 21 13 21.671574 13 22.5 C 13 23.328426 13.671573 24 14.5 24 C 15.328427 24 16 23.328426 16 22.5 Z"/>
    </g>
    <g id="RightEye">
        <path id="RightEyeOutline" fill="#000000" fill-rule="evenodd" stroke="none" d="M 32 19 C 32 14.581722 35.581722 11 40 11 C 44.418278 11 48 14.581722 48 19 C 48 23.418278 44.418278 27 40 27 C 35.581722 27 32 23.418278 32 19 Z"/>
        <path id="RightEyeWhite" fill="#ffffff" fill-rule="evenodd" stroke="none" d="M 34 17.5 C 34 15.014719 36.014717 13 38.5 13 C 40.985283 13 43 15.014719 43 17.5 C 43 19.985281 40.985283 22 38.5 22 C 36.014717 22 34 19.985281 34 17.5 Z"/>
        <path id="RightEyeReflection" fill="#ffffff" fill-rule="evenodd" stroke="none" d="M 44 22.5 C 44 21.671574 43.328426 21 42.5 21 C 41.671574 21 41 21.671574 41 22.5 C 41 23.328426 41.671574 24 42.5 24 C 43.328426 24 44 23.328426 44 22.5 Z"/>
    </g>
    <path id="RightEyebrow" fill="#000000" fill-rule="evenodd" stroke="none" d="M 49.212193 8 C 46.732922 4.822824 44.330574 2.71949 42.336956 2.71949 C 38.865314 2.71949 37.934219 2.550394 36.836739 3.993439 C 35.238827 6.094484 39.380409 3.424526 42.994709 5 C 44.386261 5.606577 47.674469 8.150446 48.212193 9 C 48.846344 10.001896 50.078762 9.110504 49.212193 8 Z"/>
    <path id="LeftEyebrow" fill="#000000" fill-rule="evenodd" stroke="none" d="M 2.782516 8 C 5.261787 4.822824 7.664138 2.71949 9.657756 2.71949 C 13.129397 2.71949 14.060493 2.550394 15.157973 3.993439 C 16.755884 6.094484 12.614301 3.424526 9 5 C 7.60845 5.606577 4.32024 8.150446 3.782516 9 C 3.148368 10.001896 1.915948 9.110504 2.782516 8 Z"/>
    <path id="Mouth" fill="#000000" fill-rule="evenodd" stroke="none" d="M 30 23 C 30.008083 22.562904 29.176065 21.372051 28 20 C 27.288683 19.170145 26 19 26 19 C 26 19 24.66143 19.392509 24 20 C 23.260054 20.679604 21.988552 22.21851 22 23 C 22.048744 26.328001 23.819111 29 26.018234 29 C 28.217354 29 29.923668 27.128021 30 23 Z"/>
</svg>
