<?xml version="1.0" encoding="UTF-8"?>
<!-- Generated by Pixelmator Pro 3.6.6 -->
<svg width="52" height="32" viewBox="0 0 52 32" xmlns="http://www.w3.org/2000/svg">
    <g id="LeftEye">
        <path id="LeftEyeOutline" fill="#000000" fill-rule="evenodd" stroke="none" d="M 20 18 C 20 13.581722 16.418278 10 12 10 C 7.581722 10 4 13.581722 4 18 C 4 22.418278 7.581722 26 12 26 C 16.418278 26 20 22.418278 20 18 Z"/>
        <path id="LeftEyeWhite" fill="#ffffff" fill-rule="evenodd" stroke="none" d="M 15 16.5 C 15 14.014719 12.985281 12 10.5 12 C 8.014719 12 6 14.014719 6 16.5 C 6 18.985281 8.014719 21 10.5 21 C 12.985281 21 15 18.985281 15 16.5 Z"/>
        <path id="LeftEyeReflection" fill="#ffffff" fill-rule="evenodd" stroke="none" d="M 16 21.5 C 16 20.671574 15.328427 20 14.5 20 C 13.671573 20 13 20.671574 13 21.5 C 13 22.328426 13.671573 23 14.5 23 C 15.328427 23 16 22.328426 16 21.5 Z"/>
    </g>
    <g id="RightEye-copy">
        <path id="RightEyeOutline" fill="#000000" fill-rule="evenodd" stroke="none" d="M 32 18 C 32 13.581722 35.581722 10 40 10 C 44.418278 10 48 13.581722 48 18 C 48 22.418278 44.418278 26 40 26 C 35.581722 26 32 22.418278 32 18 Z"/>
        <path id="RightEyeWhite" fill="#ffffff" fill-rule="evenodd" stroke="none" d="M 34 16.5 C 34 14.014719 36.014717 12 38.5 12 C 40.985283 12 43 14.014719 43 16.5 C 43 18.985281 40.985283 21 38.5 21 C 36.014717 21 34 18.985281 34 16.5 Z"/>
        <path id="RightEyeReflection" fill="#ffffff" fill-rule="evenodd" stroke="none" d="M 44 21.5 C 44 20.671574 43.328426 20 42.5 20 C 41.671574 20 41 20.671574 41 21.5 C 41 22.328426 41.671574 23 42.5 23 C 43.328426 23 44 22.328426 44 21.5 Z"/>
    </g>
    <path id="LeftEyebrow" fill="#000000" fill-rule="evenodd" stroke="none" d="M 3.317174 9.017706 C 5.57207 8.36364 6.930594 10.571445 10.186059 8.770235 C 12.24738 7.62973 11.811878 2.144766 13.386808 3.042786 C 14.899579 3.905359 12.787257 9.916985 11.31895 10.467051 C 10.069315 10.935198 5.645424 11.472382 3.913678 10.506926 C 2.878028 9.929544 1.964333 9.410118 3.317174 9.017706 Z"/>
    <path id="RightEyebrow" fill="#000000" fill-rule="evenodd" stroke="none" d="M 48.695881 9.233038 C 46.440987 8.578972 45.082458 10.786777 41.826996 8.985567 C 39.765675 7.845062 40.201176 2.360096 38.626247 3.258118 C 37.113476 4.120691 39.2258 10.132317 40.694107 10.682383 C 41.943741 11.15053 46.36763 11.687716 48.099377 10.722258 C 49.135029 10.144875 50.048721 9.62545 48.695881 9.233038 Z"/>
    <path id="Mouth" fill="#000000" fill-rule="evenodd" stroke="none" d="M 30 23.680807 C 30.008083 24.117903 28.040936 24.151194 28 22.680807 C 27.939606 20.51149 27.277348 19.709024 26 19.680809 C 24.814335 19.654617 24.051506 20.749493 24 22.680807 C 23.973217 23.685129 21.988552 24.462297 22 23.680807 C 22.048744 20.352806 23.819111 17.680809 26.018234 17.680809 C 28.217354 17.680809 29.923668 19.552786 30 23.680807 Z"/>
</svg>
