<?xml version="1.0" encoding="UTF-8"?>
<!-- Generated by Pixelmator Pro 3.6.6 -->
<svg width="52" height="32" viewBox="0 0 52 32" xmlns="http://www.w3.org/2000/svg">
    <g id="LeftEye">
        <path id="LeftEyeOutline" fill="#000000" fill-rule="evenodd" stroke="none" d="M 20 18 C 20 13.581722 16.418278 10 12 10 C 7.581722 10 4 13.581722 4 18 C 4 22.418278 7.581722 26 12 26 C 16.418278 26 20 22.418278 20 18 Z"/>
        <path id="LeftEyeWhite" fill="#ffffff" fill-rule="evenodd" stroke="none" d="M 15 16.5 C 15 14.014719 12.985281 12 10.5 12 C 8.014719 12 6 14.014719 6 16.5 C 6 18.985281 8.014719 21 10.5 21 C 12.985281 21 15 18.985281 15 16.5 Z"/>
        <path id="LeftEyeReflection" fill="#ffffff" fill-rule="evenodd" stroke="none" d="M 16 21.5 C 16 20.671574 15.328427 20 14.5 20 C 13.671573 20 13 20.671574 13 21.5 C 13 22.328426 13.671573 23 14.5 23 C 15.328427 23 16 22.328426 16 21.5 Z"/>
    </g>
    <g id="RightEye">
        <path id="RightEyeOutline" fill="#000000" fill-rule="evenodd" stroke="none" d="M 32 18 C 32 13.581722 35.581722 10 40 10 C 44.418278 10 48 13.581722 48 18 C 48 22.418278 44.418278 26 40 26 C 35.581722 26 32 22.418278 32 18 Z"/>
        <path id="RightEyeWhite" fill="#ffffff" fill-rule="evenodd" stroke="none" d="M 34 16.5 C 34 14.014719 36.014717 12 38.5 12 C 40.985283 12 43 14.014719 43 16.5 C 43 18.985281 40.985283 21 38.5 21 C 36.014717 21 34 18.985281 34 16.5 Z"/>
        <path id="RightEyeReflection" fill="#ffffff" fill-rule="evenodd" stroke="none" d="M 44 21.5 C 44 20.671574 43.328426 20 42.5 20 C 41.671574 20 41 20.671574 41 21.5 C 41 22.328426 41.671574 23 42.5 23 C 43.328426 23 44 22.328426 44 21.5 Z"/>
    </g>
    <path id="RightEyebrow" fill="#000000" fill-rule="evenodd" stroke="none" d="M 48.071659 8.367352 C 44.863724 5.566824 42.769344 4.620558 40.786648 4.828949 C 37.334023 5.191833 36.501892 5.194437 35.449726 6.670847 C 34.439083 8.088987 38.274021 6.053591 40.796421 6.115484 C 42.130466 6.14822 46.447376 8.804356 47.181667 9.466402 C 48.062298 10.260395 49.132793 9.293718 48.071659 8.367352 Z"/>
    <path id="LeftEyebrow" fill="#000000" fill-rule="evenodd" stroke="none" d="M 3.712048 8.344618 C 6.919984 5.54409 9.014362 4.597826 10.997059 4.806215 C 14.449683 5.1691 15.281816 5.171703 16.333982 6.648115 C 17.344624 8.066254 13.509686 6.030857 10.987286 6.092751 C 9.653242 6.125486 5.33633 8.781624 4.602041 9.443668 C 3.721409 10.237661 2.650915 9.270985 3.712048 8.344618 Z"/>
    <path id="Mouth" fill="#000000" fill-rule="evenodd" stroke="none" d="M 28.999956 25.250011 C 29.006018 24.922194 28.382013 24.029066 27.499977 23.000042 C 26.966496 22.377659 25.999998 22.250053 25.999998 22.250053 C 25.999998 22.250053 24.996084 22.54443 24.500019 23.000042 C 23.945066 23.509739 22.991455 24.663902 23.00004 25.250011 C 23.036598 27.745975 24.364353 28.749947 26.013674 28.749947 C 27.662991 28.749947 28.942707 28.345984 28.999956 25.250011 Z"/>
</svg>
