<?xml version="1.0" encoding="UTF-8"?>
<!-- Generated by Pixelmator Pro 3.6.6 -->
<svg width="52" height="32" viewBox="0 0 52 32" xmlns="http://www.w3.org/2000/svg">
    <g id="LeftEye">
        <path id="LeftEyeOutline" fill="#000000" fill-rule="evenodd" stroke="none" d="M 19.379559 16.587727 C 20.356173 12.278734 17.654747 7.993906 13.345756 7.017292 C 9.036764 6.040678 4.751935 8.742104 3.775321 13.051094 C 2.798708 17.360085 5.500134 21.644917 9.809125 22.621529 C 14.118115 23.598143 18.402946 20.896717 19.379559 16.587727 Z"/>
        <path id="LeftEyeWhite" fill="#ffffff" fill-rule="evenodd" stroke="none" d="M 13.834794 13.019632 C 14.384139 10.595823 12.864587 8.185608 10.44078 7.636263 C 8.016973 7.086916 5.606755 8.60647 5.05741 11.030277 C 4.508065 13.454084 6.027617 15.8643 8.451425 16.413647 C 10.875232 16.96299 13.285449 15.443439 13.834794 13.019632 Z"/>
        <path id="LeftEyeReflection" fill="#ffffff" fill-rule="evenodd" stroke="none" d="M 14.704862 19.116995 C 14.887977 18.309059 14.381459 17.505653 13.573524 17.322538 C 12.765588 17.139423 11.962182 17.645943 11.779067 18.453876 C 11.595952 19.261812 12.102469 20.065218 12.910405 20.248333 C 13.718342 20.43145 14.521747 19.924931 14.704862 19.116995 Z"/>
    </g>
    <g id="RightEye">
        <path id="RightEyeOutline" fill="#000000" fill-rule="evenodd" stroke="none" d="M 31.082737 20.2402 C 32.059353 15.931208 36.344181 13.229782 40.653172 14.206396 C 44.962162 15.18301 47.663589 19.467838 46.686977 23.776831 C 45.710361 28.085821 41.425533 30.787247 37.116543 29.810635 C 32.807549 28.834021 30.106125 24.549191 31.082737 20.2402 Z"/>
        <path id="RightEyeWhite" fill="#ffffff" fill-rule="evenodd" stroke="none" d="M 32.290623 17.8825 C 32.839966 15.458693 35.250183 13.939138 37.673992 14.488485 C 40.097801 15.03783 41.617352 17.448048 41.068005 19.871853 C 40.518661 22.295662 38.108444 23.815214 35.684635 23.265869 C 33.260826 22.716522 31.741276 20.306307 32.290623 17.8825 Z"/>
        <path id="RightEyeReflection" fill="#ffffff" fill-rule="evenodd" stroke="none" d="M 42.135952 24.537785 C 41.952839 23.729849 41.149429 23.223331 40.341496 23.406446 C 39.533562 23.589561 39.027042 24.392967 39.210159 25.200903 C 39.393272 26.008839 40.196678 26.515356 41.004616 26.332241 C 41.81255 26.149126 42.319069 25.345718 42.135952 24.537785 Z"/>
    </g>
    <path id="LeftEyebrow" fill="#000000" fill-rule="evenodd" stroke="none" d="M 8.925143 1.135885 C 12.939005 0.775133 16.116255 1.091974 17.478493 2.547592 C 19.850664 5.082373 20.610344 5.646658 20.306627 7.434002 C 19.864424 10.036341 18.983923 5.188028 15.363961 3.62561 C 13.970231 3.024059 9.866022 2.361435 8.878304 2.54932 C 7.713468 2.770899 7.522196 1.261976 8.925143 1.135885 Z"/>
    <path id="RightEyebrow" fill="#000000" fill-rule="evenodd" stroke="none" d="M 42.770527 11.562462 C 39.039093 10.040094 35.90868 9.410933 34.179363 10.402889 C 31.167967 12.130259 30.276175 12.446861 30.042206 14.244663 C 29.701542 16.86223 31.96558 12.485529 35.884624 12.053785 C 37.393505 11.88756 41.511524 12.45808 42.400669 12.927454 C 43.449253 13.480993 44.07476 12.094566 42.770527 11.562462 Z"/>
    <path id="Mouth" fill="#000000" fill-rule="evenodd" stroke="none" d="M 30 29 C 30.340122 28.725346 29.45083 28.077381 28 27 C 27.006891 26.26252 26 26 26 26 C 26 26 25.119144 26.02774 24.05958 26.447147 C 23.125422 26.816917 22.277174 27.702711 23 28 C 24.885277 28.775391 24.095778 28.375006 26 29 C 27.402121 29.460197 28.190928 30.460861 30 29 Z"/>
</svg>
